<svg aria-hidden="true" style="width:0;height:0;position:absolute;overflow:hidden" xmlns="http://www.w3.org/2000/svg"><defs><symbol id="icon-burger" viewBox="0 0 32 32"><path stroke-width="1.6" stroke-linecap="round" stroke-linejoin="round" d="M28 13.333H4M28 8H4m24 10.667H4M28 24H4"/></symbol><symbol id="icon-chevron-down" viewBox="0 0 32 32"><path fill="none" stroke-width="2.667" stroke-linecap="round" stroke-linejoin="round" d="m8 12 8 8 8-8"/></symbol><symbol id="icon-cocktail" viewBox="0 0 32 32"><path d="M28.356 2.986c-.062-.039-.121-.068-.183-.099a5.046 5.046 0 0 0-2.391-.594h-.024a5.227 5.227 0 0 0-2.612.703 5.318 5.318 0 0 0-1.907 1.891l-.013.025-.013.025a5.041 5.041 0 0 0-.664 2.104l-.001.019-.001.02H9.575L8.348 4.103a3.072 3.072 0 0 0-1.409-1.55l-.017-.008a2.987 2.987 0 0 0-1.39-.338c-.248 0-.489.03-.72.086l.021-.004.021-.004-3.71.847.23 1.018 3.71-.847a2.008 2.008 0 0 1 2.302 1.189l.004.013L8.455 7.08H1.488l11.649 11.715v8.578c-2.705.193-4.57 1.095-4.57 2.212v.209h11.226v-.209c0-1.117-1.869-2.023-4.572-2.212v-8.578l7.181-7.222c.225.192.477.371.742.527l.025.013a5.146 5.146 0 0 0 2.585.687 5.2 5.2 0 0 0 1.409-.193l-.037.009a5.257 5.257 0 0 0 3.145-2.425l.013-.025c.439-.754.698-1.66.698-2.626 0-.48-.064-.945-.184-1.387l.009.037a5.28 5.28 0 0 0-2.393-3.177L28.39 3l-.026-.014-.008-.002zm1.142 4.031-2.85.009 1.418-2.483a3.8 3.8 0 0 1 1.426 2.432l.003.021.002.022zm-2.329-2.998-1.418 2.489-1.434-2.475c.459-.19.949-.287 1.446-.285.506 0 .99.099 1.432.279l-.025-.009zm-4.698 1.642a3.77 3.77 0 0 1 .942-1.098l.009-.006 1.433 2.475-2.844.008c.064-.516.226-.982.468-1.398l-.009.018v.001zM4.981 8.535h4.071L9.611 9.9H6.339L4.982 8.535zm17.023 1.366h-.93v.007H10.728l-.559-1.364H23.35l-1.346 1.357zm2.336 1.18 1.419-2.49 1.433 2.475a3.698 3.698 0 0 1-1.442.287c-.508 0-.993-.099-1.434-.282l.024.011zm4.698-1.635a3.802 3.802 0 0 1-.934 1.092l-.008.006-.008.006-1.434-2.474 2.845-.008a3.879 3.879 0 0 1-.47 1.396l.011-.019-.002.001z"/></symbol><symbol id="icon-facebook" viewBox="0 0 32 32"><path fill="#fdfdff" d="M18.425 10.801h1.462V8.328c-.63-.069-1.36-.109-2.099-.109h-.034.002c-2.115 0-3.562 1.29-3.562 3.655v2.038h-2.387v2.769h2.388v7.094h2.862v-7.094h2.38l.358-2.768h-2.738v-1.766c0-.816.218-1.346 1.369-1.346z"/><path fill="none" stroke="#fdfdff" stroke-width=".8" d="M4.8.4h22.4a4.4 4.4 0 0 1 4.4 4.4v22.4a4.4 4.4 0 0 1-4.4 4.4H4.8a4.4 4.4 0 0 1-4.4-4.4V4.8A4.4 4.4 0 0 1 4.8.4z"/></symbol><symbol id="icon-heart" viewBox="0 0 32 32"><path stroke="#fdfdff" stroke-width="2.667" stroke-linecap="round" stroke-linejoin="round" style="stroke:var(--color2,#fdfdff)" d="M27.787 6.147C26.46 4.819 24.626 3.998 22.6 3.998s-3.859.821-5.187 2.149L16 7.56l-1.413-1.413A7.335 7.335 0 0 0 4.213 16.521L16 28.308l11.787-11.787c1.328-1.327 2.149-3.161 2.149-5.187s-.821-3.859-2.149-5.187h0z"/></symbol><symbol id="icon-instagram" viewBox="0 0 32 32"><path fill="#fdfdff" style="fill:var(--color2,#fdfdff)" d="M19.992 11.114a.896.896 0 1 0 0 1.792.896.896 0 1 0 0-1.792zm3.434 1.808a5.661 5.661 0 0 0-.357-1.854l.013.039a3.712 3.712 0 0 0-.866-1.321l-.001-.001a3.505 3.505 0 0 0-1.297-.85l-.024-.008a5.325 5.325 0 0 0-1.808-.351h-.006c-.792-.045-1.046-.045-3.077-.045s-2.285 0-3.076.045a5.45 5.45 0 0 0-1.852.364l.037-.013a3.586 3.586 0 0 0-1.321.858l-.001.001a3.504 3.504 0 0 0-.851 1.297l-.008.024a5.326 5.326 0 0 0-.35 1.809v.006c-.045.792-.045 1.046-.045 3.076 0 2.032 0 2.285.045 3.077a5.46 5.46 0 0 0 .35 1.814c.182.5.476.952.859 1.322a3.56 3.56 0 0 0 1.297.85l.025.008a5.35 5.35 0 0 0 1.808.351h.006c.792.045 1.045.045 3.076.045s2.285 0 3.077-.045a5.45 5.45 0 0 0 1.852-.364l-.037.013c.518-.192.96-.485 1.32-.857l.001-.001c.373-.363.668-.804.858-1.297l.008-.025a5.555 5.555 0 0 0 .344-1.807v-.007c0-.792.044-1.046.044-3.077s0-2.285-.045-3.076zm-1.344 6.063a4.18 4.18 0 0 1-.264 1.418l.009-.029a2.307 2.307 0 0 1-.559.858l-.001.001a2.375 2.375 0 0 1-.842.554l-.016.006a4.115 4.115 0 0 1-1.386.254h-.003c-.746.038-1.023.045-2.986.045s-2.24 0-2.987-.045l-.079.001c-.49 0-.96-.082-1.399-.234l.03.009a2.465 2.465 0 0 1-.821-.559l-.001-.001a2.244 2.244 0 0 1-.547-.843l-.005-.016a4.056 4.056 0 0 1-.299-1.412v-.007c0-.747-.045-1.023-.045-2.987s0-2.24.045-2.986c.004-.51.099-.997.271-1.447l-.01.028c.131-.315.333-.596.59-.822.224-.252.498-.454.807-.592l.015-.006c.422-.157.909-.25 1.417-.254h.002c.746 0 1.023-.045 2.986-.045s2.24 0 2.986.045c.474.006.944.091 1.389.254.34.126.644.331.889.598.245.23.436.51.56.822.166.454.252.934.254 1.418.038.746.045 1.023.045 2.986s-.007 2.24-.045 2.987zm-6.078-6.818a3.83 3.83 0 1 0 3.838 3.831v-.009a3.822 3.822 0 0 0-3.822-3.822h-.017.001zm0 6.317a2.486 2.486 0 1 1 0-4.972 2.486 2.486 0 1 1 0 4.972z"/><path fill="none" stroke="#fdfdff" stroke-width=".8" style="stroke:var(--color2,#fdfdff)" d="M4.8.4h22.4a4.4 4.4 0 0 1 4.4 4.4v22.4a4.4 4.4 0 0 1-4.4 4.4H4.8a4.4 4.4 0 0 1-4.4-4.4V4.8A4.4 4.4 0 0 1 4.8.4z"/></symbol><symbol id="icon-search" viewBox="0 0 32 32"><path d="m29.092 31.514-6.85-6.86a11.819 11.819 0 0 1-3.687 2.158l-.083.026c-1.336.494-2.88.78-4.49.78h-.092.005c-3.878 0-7.162-1.346-9.854-4.044C1.347 20.876.001 17.62.001 13.81c0-3.812 1.346-7.066 4.04-9.764C6.733 1.348 10.001 0 13.841 0c3.806 0 7.046 1.348 9.72 4.046 2.676 2.698 4.014 5.952 4.014 9.764 0 1.546-.252 3.04-.754 4.478a13.703 13.703 0 0 1-2.282 4.069l.02-.025 6.958 6.862c.298.261.485.641.485 1.066l-.001.042V30.3c-.006.48-.212.911-.539 1.213l-.001.001c-.293.3-.701.486-1.153.486h-.033.002-.031c-.452 0-.86-.186-1.153-.486zM13.84 24.382c2.908 0 5.386-1.034 7.432-3.1 2.046-2.068 3.07-4.56 3.07-7.472 0-2.914-1.024-5.404-3.07-7.472S16.748 3.24 13.84 3.24c-2.944 0-5.448 1.032-7.512 3.1s-3.096 4.56-3.096 7.472c0 2.912 1.032 5.404 3.096 7.47 2.064 2.068 4.568 3.102 7.512 3.102z"/></symbol><symbol id="icon-trash" viewBox="0 0 32 32"><path fill="none" stroke-width="2.667" stroke-linecap="round" stroke-linejoin="round" d="M21.333 8V6.933c0-1.493 0-2.24-.291-2.811a2.682 2.682 0 0 0-1.151-1.158l-.015-.007c-.571-.291-1.317-.291-2.811-.291h-2.133c-1.493 0-2.24 0-2.811.291a2.685 2.685 0 0 0-1.158 1.15l-.007.015c-.291.571-.291 1.317-.291 2.811V8m2.668 7.333V22m5.334-6.667V22M4 8h24m-2.667 0v14.933c0 2.24 0 3.36-.436 4.216a4.035 4.035 0 0 1-1.726 1.738l-.022.011c-.856.436-1.976.436-4.216.436h-5.867c-2.24 0-3.36 0-4.216-.436a4.027 4.027 0 0 1-1.737-1.726l-.011-.022c-.436-.856-.436-1.976-.436-4.216V8.001"/></symbol><symbol id="icon-close" viewBox="0 0 32 32"><path stroke-width="2.667" stroke-linecap="round" stroke-linejoin="round" d="M24 8 8 24M8 8l16 16"/></symbol><symbol id="icon-youtube" viewBox="0 0 32 32"><path fill="#fdfdff" style="fill:var(--color2,#fdfdff)" d="M20.532 10.5c-.748-.044-2.288-.088-4.62-.088h-.308c-2.244 0-3.74.044-4.488.132-1.012.088-1.716.352-2.112.704-.352.308-.616.88-.704 1.628-.044.484-.088 1.496-.088 3.036v.22c0 1.452.044 2.464.132 2.948.132.704.352 1.232.792 1.54.44.352 1.188.572 2.244.66.748.044 2.288.088 4.62.088h.308c2.244 0 3.74-.044 4.488-.132 1.012-.088 1.716-.352 2.112-.704.352-.308.616-.88.704-1.628.044-.484.088-1.496.088-3.036v-.22c0-1.452-.044-2.464-.132-2.948-.132-.704-.352-1.232-.792-1.54-.44-.352-1.188-.572-2.244-.66zm-1.716 5.412-4.84 2.904v-5.808l4.84 2.904z"/><path fill="none" stroke="#fdfdff" stroke-width=".8" style="stroke:var(--color2,#fdfdff)" d="M4.8.4h22.4a4.4 4.4 0 0 1 4.4 4.4v22.4a4.4 4.4 0 0 1-4.4 4.4H4.8a4.4 4.4 0 0 1-4.4-4.4V4.8A4.4 4.4 0 0 1 4.8.4z"/></symbol></defs></svg>